<svg width="33" height="33" viewBox="0 0 33 33" fill="none" xmlns="http://www.w3.org/2000/svg">
<rect width="32.9991" height="32.9991" rx="16.4996" fill="white"/>
<path d="M19.4997 20.9995L20.9997 22.4994L23.9996 19.4995M23.9996 14.9996H9M23.9996 16.4996V13.6497C23.9996 12.8096 23.9996 12.3896 23.8361 12.0687C23.6923 11.7865 23.4628 11.557 23.1806 11.4132C22.8597 11.2498 22.4397 11.2498 21.5996 11.2498H11.3999C10.5599 11.2498 10.1398 11.2498 9.81899 11.4132C9.53676 11.557 9.30729 11.7865 9.16349 12.0687C9 12.3896 9 12.8096 9 13.6497V19.3495C9 20.1896 9 20.6096 9.16349 20.9305C9.30729 21.2127 9.53676 21.4422 9.81899 21.586C10.1398 21.7494 10.5599 21.7494 11.3999 21.7494H16.4998" stroke="#181C20" stroke-width="1.49996" stroke-linecap="round" stroke-linejoin="round"/>
</svg>
