<svg width="33" height="33" viewBox="0 0 33 33" fill="none" xmlns="http://www.w3.org/2000/svg">
<rect width="32.9999" height="32.9997" rx="16.4999" fill="white"/>
<path d="M13.2656 8.62512C12.7808 8.62512 12.3158 8.81772 11.9729 9.16056C11.6301 9.50339 11.4375 9.96838 11.4375 10.4532V22.5468C11.4375 23.0316 11.6301 23.4966 11.9729 23.8394C12.3158 24.1823 12.7808 24.3749 13.2656 24.3749H19.7343C20.2191 24.3749 20.6841 24.1823 21.027 23.8394C21.3698 23.4966 21.5624 23.0316 21.5624 22.5468V10.4532C21.5624 9.96838 21.3698 9.50339 21.027 9.16056C20.6841 8.81772 20.2191 8.62512 19.7343 8.62512H13.2656ZM12.5625 10.4532C12.5625 10.0651 12.8775 9.7501 13.2656 9.7501H19.7343C20.1224 9.7501 20.4374 10.0651 20.4374 10.4532V22.5468C20.4374 22.9349 20.1224 23.2499 19.7343 23.2499H13.2656C12.8775 23.2499 12.5625 22.9349 12.5625 22.5468V10.4532ZM15.375 20.9999C15.2258 20.9999 15.0827 21.0592 14.9772 21.1647C14.8717 21.2702 14.8125 21.4132 14.8125 21.5624C14.8125 21.7116 14.8717 21.8547 14.9772 21.9602C15.0827 22.0657 15.2258 22.1249 15.375 22.1249H17.6249C17.7741 22.1249 17.9172 22.0657 18.0227 21.9602C18.1282 21.8547 18.1874 21.7116 18.1874 21.5624C18.1874 21.4132 18.1282 21.2702 18.0227 21.1647C17.9172 21.0592 17.7741 20.9999 17.6249 20.9999H15.375Z" fill="black"/>
</svg>
