<svg width="24" height="25" viewBox="0 0 24 25" fill="none" xmlns="http://www.w3.org/2000/svg">
<path d="M10 8.72192V7.72192M10 13.2219V12.2219M10 17.7219V16.7219M5.2 4.72192H18.8C19.9201 4.72192 20.4802 4.72192 20.908 4.93991C21.2843 5.13166 21.5903 5.43762 21.782 5.81394C22 6.24177 22 6.80182 22 7.92192V9.22192C20.067 9.22192 18.5 10.7889 18.5 12.7219C18.5 14.6549 20.067 16.2219 22 16.2219V17.5219C22 18.642 22 19.2021 21.782 19.6299C21.5903 20.0062 21.2843 20.3122 20.908 20.5039C20.4802 20.7219 19.9201 20.7219 18.8 20.7219H5.2C4.0799 20.7219 3.51984 20.7219 3.09202 20.5039C2.71569 20.3122 2.40973 20.0062 2.21799 19.6299C2 19.2021 2 18.642 2 17.5219V16.2219C3.933 16.2219 5.5 14.6549 5.5 12.7219C5.5 10.7889 3.933 9.22192 2 9.22192V7.92192C2 6.80182 2 6.24177 2.21799 5.81394C2.40973 5.43762 2.71569 5.13166 3.09202 4.93991C3.51984 4.72192 4.0799 4.72192 5.2 4.72192Z" stroke="#9DA4AE" stroke-width="2" stroke-linecap="round" stroke-linejoin="round"/>
</svg>
