<svg width="17" height="17" viewBox="0 0 17 17" fill="none" xmlns="http://www.w3.org/2000/svg">
<path fill-rule="evenodd" clip-rule="evenodd" d="M2.6178 0.187502C2.418 0.187478 2.2234 0.187455 2.05862 0.200919C1.87765 0.215705 1.66411 0.250592 1.44923 0.360077C1.15131 0.511877 0.909087 0.754096 0.757287 1.05202C0.661081 1.24084 0.622475 1.42862 0.604493 1.59418C0.560656 1.78652 0.58471 1.99661 0.58471 2.19202C0.58471 2.1944 0.58471 2.19679 0.58471 2.19917V15.625C0.58471 16.0622 0.939152 16.4167 1.37638 16.4167C1.8136 16.4167 2.16804 16.0622 2.16804 15.625L2.16804 8.5L6.52221 8.50001L6.52221 9.63362C6.52219 9.83342 6.52217 10.028 6.53563 10.1928C6.55042 10.3737 6.5853 10.5873 6.69479 10.8022C6.84659 11.1001 7.08881 11.3423 7.38673 11.4941C7.60161 11.6036 7.81515 11.6385 7.99612 11.6533C8.16091 11.6667 8.3555 11.6667 8.55531 11.6667L14.6762 11.6667C14.8169 11.6667 14.9711 11.6668 15.1017 11.6549C15.2407 11.6422 15.4676 11.6088 15.6846 11.4615C15.9486 11.2821 16.1293 11.0041 16.1859 10.69C16.2325 10.4319 16.1708 10.211 16.1259 10.0788C16.0837 9.95461 16.0211 9.81374 15.9639 9.68517L14.9182 7.33239L15.8874 5.39405C15.9534 5.26222 16.0248 5.11946 16.0739 4.99359C16.1255 4.86163 16.2002 4.63595 16.1607 4.36811C16.1129 4.04498 15.9342 3.75578 15.6665 3.56857C15.4446 3.4134 15.2094 3.37932 15.0683 3.3664C14.9337 3.35409 14.7741 3.35413 14.6267 3.35417L10.4805 3.35418V2.2206C10.4806 2.02079 10.4806 1.8262 10.4671 1.66141C10.4523 1.48044 10.4175 1.2669 10.308 1.05202C10.1562 0.754096 9.91396 0.511877 9.61603 0.360077C9.40116 0.250592 9.18762 0.215705 9.00665 0.200919C8.84186 0.187455 8.64728 0.187478 8.44748 0.187502L2.6178 0.187502Z" fill="#DC2626"/>
</svg>
