
<!DOCTYPE svg PUBLIC "-//W3C//DTD SVG 1.1//EN" "http://www.w3.org/Graphics/SVG/1.1/DTD/svg11.dtd">

<!-- Uploaded to: SVG Repo, www.svgrepo.com, Transformed by: SVG Repo Mixer Tools -->
<svg fill="#aaa" width="800px" height="800px" viewBox="0 0 24 24" xmlns="http://www.w3.org/2000/svg" stroke="#aaa">

<g id="SVGRepo_bgCarrier" stroke-width="0"/>

<g id="SVGRepo_tracerCarrier" stroke-linecap="round" stroke-linejoin="round"/>

<g id="SVGRepo_iconCarrier">

<path d="M5,22a4,4,0,0,0,3.858-3h6.284a4.043,4.043,0,1,0,2.789-4.837L14.816,8.836a4,4,0,1,0-5.63,0L6.078,14.166A3.961,3.961,0,0,0,5,14a4,4,0,0,0,0,8Zm14-6a2,2,0,1,1-2,2A2,2,0,0,1,19,16ZM12,4a2,2,0,1,1-2,2A2,2,0,0,1,12,4ZM10.922,9.834A3.961,3.961,0,0,0,12,10a3.909,3.909,0,0,0,1.082-.168l3.112,5.323A4,4,0,0,0,15.142,17H8.858a3.994,3.994,0,0,0-1.044-1.838ZM5,16a2,2,0,1,1-2,2A2,2,0,0,1,5,16Z"/>

</g>

</svg>
