<svg width="22" height="22" viewBox="0 0 22 22" fill="none" xmlns="http://www.w3.org/2000/svg">
<path d="M7.87417 12.3842L14.135 16.0325M14.1258 5.96754L7.87417 9.61587M19.25 4.58337C19.25 6.10216 18.0188 7.33337 16.5 7.33337C14.9812 7.33337 13.75 6.10216 13.75 4.58337C13.75 3.06459 14.9812 1.83337 16.5 1.83337C18.0188 1.83337 19.25 3.06459 19.25 4.58337ZM8.25 11C8.25 12.5188 7.01878 13.75 5.5 13.75C3.98122 13.75 2.75 12.5188 2.75 11C2.75 9.48126 3.98122 8.25004 5.5 8.25004C7.01878 8.25004 8.25 9.48126 8.25 11ZM19.25 17.4167C19.25 18.9355 18.0188 20.1667 16.5 20.1667C14.9812 20.1667 13.75 18.9355 13.75 17.4167C13.75 15.8979 14.9812 14.6667 16.5 14.6667C18.0188 14.6667 19.25 15.8979 19.25 17.4167Z" stroke="#111111" stroke-width="1.83333" stroke-linecap="round" stroke-linejoin="round"/>
</svg>
