<svg width="16" height="16" viewBox="0 0 16 16" fill="none" xmlns="http://www.w3.org/2000/svg">
<path d="M8.42974 1.18378C8.1575 1.05398 7.84123 1.05398 7.56899 1.18378C7.33365 1.29599 7.20389 1.49081 7.13845 1.59769C7.07081 1.70818 7.00136 1.84894 6.93368 1.98613L5.49652 4.89765L2.28182 5.36753C2.1305 5.38961 1.97522 5.41228 1.84928 5.44256C1.72744 5.47186 1.50217 5.53523 1.32289 5.72445C1.1155 5.94337 1.01796 6.24418 1.05744 6.54313C1.09157 6.80155 1.2368 6.98505 1.31827 7.08027C1.40248 7.1787 1.51491 7.28817 1.62449 7.39485L3.94968 9.65958L3.40104 12.8584C3.37514 13.0093 3.34857 13.164 3.33834 13.2932C3.32845 13.4181 3.31889 13.6521 3.44335 13.8812C3.58732 14.1463 3.84324 14.3322 4.13982 14.3871C4.39622 14.4347 4.61575 14.3533 4.7315 14.3052C4.8512 14.2556 4.99015 14.1825 5.12559 14.1112L7.99936 12.5999L10.8732 14.1112C11.0086 14.1825 11.1475 14.2556 11.2672 14.3052C11.383 14.3533 11.6025 14.4347 11.8589 14.3871C12.1555 14.3322 12.4114 14.1463 12.5554 13.8812C12.6798 13.6521 12.6703 13.4181 12.6604 13.2932C12.6502 13.164 12.6236 13.0093 12.5977 12.8585L12.049 9.65958L14.3743 7.39482C14.4838 7.28815 14.5963 7.17869 14.6805 7.08027C14.7619 6.98505 14.9072 6.80155 14.9413 6.54313C14.9808 6.24418 14.8832 5.94337 14.6758 5.72445C14.4966 5.53523 14.2713 5.47186 14.1495 5.44256C14.0235 5.41228 13.8682 5.38961 13.7169 5.36753L10.5022 4.89765L9.06508 1.98618C8.99739 1.84898 8.92793 1.70819 8.86028 1.59769C8.79484 1.49081 8.66508 1.29599 8.42974 1.18378Z" fill="#FCD34D"/>
</svg>
