<svg width="100" height="24" viewBox="0 0 100 24" fill="none" xmlns="http://www.w3.org/2000/svg">
<path d="M3.7207 2.49997L2.20108 2.84067L1.86038 4.36029L1.51968 2.84067L6.16691e-05 2.49997L1.51968 2.15927L1.86038 0.639648L2.20108 2.15927L3.7207 2.49997Z" fill="#684AF6"/>
<path d="M50.3594 0.5L50.9661 1.8933L52.3594 2.5L50.9661 3.1067L50.3594 4.5L49.7527 3.1067L48.3594 2.5L49.7527 1.8933L50.3594 0.5Z" fill="#684AF6"/>
<path d="M98.5 1L98.7005 2.29954L100 2.5L98.7005 2.70046L98.5 4L98.2995 2.70046L97 2.5L98.2995 2.29954L98.5 1Z" fill="#684AF6"/>
<path d="M5.344 17.756C4.672 17.756 4.05867 17.6493 3.504 17.436C2.96 17.212 2.496 16.892 2.112 16.476C1.728 16.06 1.42933 15.5587 1.216 14.972C1.00267 14.3747 0.896 13.6973 0.896 12.94V6.044H3.056V13.068C3.056 13.452 3.104 13.804 3.2 14.124C3.296 14.444 3.44 14.7213 3.632 14.956C3.824 15.1907 4.064 15.3773 4.352 15.516C4.64 15.644 4.97067 15.708 5.344 15.708C5.728 15.708 6.064 15.644 6.352 15.516C6.64 15.3773 6.88 15.1907 7.072 14.956C7.264 14.7213 7.408 14.444 7.504 14.124C7.6 13.804 7.648 13.452 7.648 13.068V6.044H9.808V12.94C9.808 13.6547 9.70133 14.3107 9.488 14.908C9.28533 15.4947 8.98667 16.0013 8.592 16.428C8.208 16.844 7.73867 17.1693 7.184 17.404C6.64 17.6387 6.02667 17.756 5.344 17.756ZM11.5351 9.66H13.5031V10.604H13.6311C13.8231 10.2733 14.1218 9.99067 14.5271 9.756C14.9325 9.52133 15.4338 9.404 16.0311 9.404C16.5325 9.404 17.0071 9.51067 17.4551 9.724C17.9138 9.92667 18.3138 10.2147 18.6551 10.588C19.0071 10.9507 19.2845 11.388 19.4871 11.9C19.6898 12.412 19.7911 12.972 19.7911 13.58C19.7911 14.188 19.6898 14.748 19.4871 15.26C19.2845 15.772 19.0071 16.2147 18.6551 16.588C18.3138 16.9507 17.9138 17.2387 17.4551 17.452C17.0071 17.6547 16.5325 17.756 16.0311 17.756C15.4338 17.756 14.9325 17.6387 14.5271 17.404C14.1218 17.1693 13.8231 16.8867 13.6311 16.556H13.5031L13.6311 17.676V20.956H11.5351V9.66ZM15.5991 15.82C15.8765 15.82 16.1378 15.7667 16.3831 15.66C16.6391 15.5533 16.8631 15.404 17.0551 15.212C17.2471 15.02 17.4018 14.7853 17.5191 14.508C17.6365 14.2307 17.6951 13.9213 17.6951 13.58C17.6951 13.2387 17.6365 12.9293 17.5191 12.652C17.4018 12.3747 17.2471 12.14 17.0551 11.948C16.8631 11.756 16.6391 11.6067 16.3831 11.5C16.1378 11.3933 15.8765 11.34 15.5991 11.34C15.3218 11.34 15.0551 11.3933 14.7991 11.5C14.5538 11.596 14.3351 11.74 14.1431 11.932C13.9511 12.124 13.7965 12.3587 13.6791 12.636C13.5618 12.9133 13.5031 13.228 13.5031 13.58C13.5031 13.932 13.5618 14.2467 13.6791 14.524C13.7965 14.8013 13.9511 15.036 14.1431 15.228C14.3351 15.42 14.5538 15.5693 14.7991 15.676C15.0551 15.772 15.3218 15.82 15.5991 15.82ZM25.51 11.452H24.134V9.66H25.51V7.26H27.606V9.66H29.526V11.452H27.606V14.492C27.606 14.6733 27.622 14.844 27.654 15.004C27.6967 15.1533 27.7713 15.2813 27.878 15.388C28.0273 15.5587 28.2407 15.644 28.518 15.644C28.6993 15.644 28.8433 15.628 28.95 15.596C29.0567 15.5533 29.158 15.5 29.254 15.436L29.846 17.276C29.6007 17.3933 29.334 17.4787 29.046 17.532C28.7687 17.596 28.4593 17.628 28.118 17.628C27.7233 17.628 27.366 17.5693 27.046 17.452C26.7367 17.324 26.4753 17.1533 26.262 16.94C25.7607 16.46 25.51 15.7773 25.51 14.892V11.452ZM34.7018 9.404C35.3098 9.404 35.8644 9.51067 36.3658 9.724C36.8778 9.92667 37.3151 10.2147 37.6778 10.588C38.0511 10.9507 38.3391 11.388 38.5417 11.9C38.7551 12.412 38.8618 12.972 38.8618 13.58C38.8618 14.188 38.7551 14.748 38.5417 15.26C38.3391 15.772 38.0511 16.2147 37.6778 16.588C37.3151 16.9507 36.8778 17.2387 36.3658 17.452C35.8644 17.6547 35.3098 17.756 34.7018 17.756C34.0938 17.756 33.5338 17.6547 33.0218 17.452C32.5204 17.2387 32.0831 16.9507 31.7098 16.588C31.3471 16.2147 31.0591 15.772 30.8458 15.26C30.6431 14.748 30.5418 14.188 30.5418 13.58C30.5418 12.972 30.6431 12.412 30.8458 11.9C31.0591 11.388 31.3471 10.9507 31.7098 10.588C32.0831 10.2147 32.5204 9.92667 33.0218 9.724C33.5338 9.51067 34.0938 9.404 34.7018 9.404ZM34.7018 15.82C34.9684 15.82 35.2244 15.772 35.4698 15.676C35.7258 15.5693 35.9498 15.42 36.1418 15.228C36.3338 15.036 36.4831 14.8013 36.5898 14.524C36.7071 14.2467 36.7658 13.932 36.7658 13.58C36.7658 13.228 36.7071 12.9133 36.5898 12.636C36.4831 12.3587 36.3338 12.124 36.1418 11.932C35.9498 11.74 35.7258 11.596 35.4698 11.5C35.2244 11.3933 34.9684 11.34 34.7018 11.34C34.4244 11.34 34.1631 11.3933 33.9178 11.5C33.6724 11.596 33.4538 11.74 33.2618 11.932C33.0698 12.124 32.9151 12.3587 32.7978 12.636C32.6911 12.9133 32.6378 13.228 32.6378 13.58C32.6378 13.932 32.6911 14.2467 32.7978 14.524C32.9151 14.8013 33.0698 15.036 33.2618 15.228C33.4538 15.42 33.6724 15.5693 33.9178 15.676C34.1631 15.772 34.4244 15.82 34.7018 15.82ZM46.7641 13.58C46.3481 13.58 45.9428 13.4947 45.5481 13.324C45.1535 13.1533 44.8015 12.9133 44.4921 12.604C44.1828 12.284 43.9321 11.9107 43.7401 11.484C43.5588 11.0467 43.4681 10.5667 43.4681 10.044C43.4681 9.5 43.5748 8.99867 43.7881 8.54C44.0015 8.07067 44.2841 7.67067 44.6361 7.34C44.9988 7.00933 45.4095 6.75333 45.8681 6.572C46.3375 6.38 46.8281 6.284 47.3401 6.284C47.9268 6.284 48.4601 6.39067 48.9401 6.604C49.4308 6.80667 49.8468 7.084 50.1881 7.436C50.5401 7.77733 50.8068 8.18267 50.9881 8.652C51.1801 9.11067 51.2761 9.596 51.2761 10.108C51.2761 10.844 51.1268 11.5213 50.8281 12.14C50.5401 12.748 50.1721 13.372 49.7241 14.012L47.0681 17.804L45.4521 16.7L47.6921 13.516L47.6121 13.42C47.3668 13.5267 47.0841 13.58 46.7641 13.58ZM47.3721 8.22C47.1268 8.22 46.8921 8.26267 46.6681 8.348C46.4548 8.43333 46.2628 8.556 46.0921 8.716C45.9215 8.876 45.7828 9.068 45.6761 9.292C45.5801 9.50533 45.5321 9.74533 45.5321 10.012C45.5321 10.2893 45.5801 10.54 45.6761 10.764C45.7828 10.9773 45.9215 11.164 46.0921 11.324C46.2628 11.484 46.4548 11.6067 46.6681 11.692C46.8921 11.7773 47.1268 11.82 47.3721 11.82C47.6068 11.82 47.8361 11.7773 48.0601 11.692C48.2841 11.6067 48.4815 11.484 48.6521 11.324C48.8335 11.164 48.9721 10.9773 49.0681 10.764C49.1748 10.54 49.2281 10.2893 49.2281 10.012C49.2281 9.74533 49.1748 9.50533 49.0681 9.292C48.9721 9.068 48.8335 8.876 48.6521 8.716C48.4815 8.556 48.2841 8.43333 48.0601 8.348C47.8361 8.26267 47.6068 8.22 47.3721 8.22ZM57.2179 17.756C56.5139 17.756 55.8792 17.612 55.3139 17.324C54.7485 17.0253 54.2632 16.62 53.8579 16.108C53.4632 15.596 53.1592 14.9933 52.9459 14.3C52.7325 13.596 52.6259 12.8387 52.6259 12.028C52.6259 11.2173 52.7325 10.4653 52.9459 9.772C53.1592 9.068 53.4632 8.46 53.8579 7.948C54.2632 7.436 54.7485 7.036 55.3139 6.748C55.8792 6.44933 56.5139 6.3 57.2179 6.3C57.9219 6.3 58.5565 6.44933 59.1219 6.748C59.6872 7.036 60.1672 7.436 60.5619 7.948C60.9672 8.46 61.2765 9.068 61.4899 9.772C61.7032 10.4653 61.8099 11.2173 61.8099 12.028C61.8099 12.8387 61.7032 13.596 61.4899 14.3C61.2765 14.9933 60.9672 15.596 60.5619 16.108C60.1672 16.62 59.6872 17.0253 59.1219 17.324C58.5565 17.612 57.9219 17.756 57.2179 17.756ZM57.2179 15.772C57.6019 15.772 57.9485 15.6813 58.2579 15.5C58.5672 15.308 58.8285 15.0467 59.0419 14.716C59.2659 14.3747 59.4312 13.9747 59.5379 13.516C59.6552 13.0573 59.7139 12.5613 59.7139 12.028C59.7139 11.484 59.6552 10.988 59.5379 10.54C59.4312 10.0813 59.2659 9.68667 59.0419 9.356C58.8285 9.01467 58.5672 8.75333 58.2579 8.572C57.9485 8.38 57.6019 8.284 57.2179 8.284C56.8232 8.284 56.4712 8.38 56.1619 8.572C55.8525 8.75333 55.5912 9.01467 55.3779 9.356C55.1645 9.68667 54.9992 10.0813 54.8819 10.54C54.7752 10.988 54.7219 11.484 54.7219 12.028C54.7219 12.5613 54.7752 13.0573 54.8819 13.516C54.9992 13.9747 55.1645 14.3747 55.3779 14.716C55.5912 15.0467 55.8525 15.308 56.1619 15.5C56.4712 15.6813 56.8232 15.772 57.2179 15.772ZM63.0276 9.036C63.0276 8.66267 63.097 8.31067 63.2356 7.98C63.385 7.64933 63.5823 7.36133 63.8276 7.116C64.0836 6.86 64.3823 6.66267 64.7236 6.524C65.065 6.37467 65.4383 6.3 65.8436 6.3C66.249 6.3 66.6223 6.37467 66.9636 6.524C67.3156 6.66267 67.6143 6.86 67.8596 7.116C68.1156 7.36133 68.313 7.64933 68.4516 7.98C68.601 8.31067 68.6756 8.66267 68.6756 9.036C68.6756 9.40933 68.601 9.76667 68.4516 10.108C68.313 10.4387 68.1156 10.7267 67.8596 10.972C67.6143 11.2173 67.3156 11.4147 66.9636 11.564C66.6223 11.7027 66.249 11.772 65.8436 11.772C65.4383 11.772 65.065 11.7027 64.7236 11.564C64.3823 11.4147 64.0836 11.2173 63.8276 10.972C63.5823 10.7267 63.385 10.4387 63.2356 10.108C63.097 9.76667 63.0276 9.40933 63.0276 9.036ZM64.7396 9.036C64.7396 9.388 64.8463 9.67067 65.0596 9.884C65.273 10.0973 65.5343 10.204 65.8436 10.204C66.153 10.204 66.4143 10.0973 66.6276 9.884C66.841 9.67067 66.9476 9.388 66.9476 9.036C66.9476 8.684 66.841 8.40133 66.6276 8.188C66.4143 7.97467 66.153 7.868 65.8436 7.868C65.5343 7.868 65.273 7.97467 65.0596 8.188C64.8463 8.40133 64.7396 8.684 64.7396 9.036ZM65.0596 16.908L72.1636 6.3L73.4276 7.148L66.3236 17.756L65.0596 16.908ZM69.8116 15.02C69.8116 14.6467 69.881 14.2947 70.0196 13.964C70.169 13.6333 70.3663 13.3453 70.6116 13.1C70.8676 12.844 71.1663 12.6467 71.5076 12.508C71.849 12.3587 72.2223 12.284 72.6276 12.284C73.033 12.284 73.4063 12.3587 73.7476 12.508C74.0996 12.6467 74.3983 12.844 74.6436 13.1C74.8996 13.3453 75.097 13.6333 75.2356 13.964C75.385 14.2947 75.4596 14.6467 75.4596 15.02C75.4596 15.3933 75.385 15.7507 75.2356 16.092C75.097 16.4227 74.8996 16.7107 74.6436 16.956C74.3983 17.2013 74.0996 17.3933 73.7476 17.532C73.4063 17.6813 73.033 17.756 72.6276 17.756C72.2223 17.756 71.849 17.6813 71.5076 17.532C71.1663 17.3933 70.8676 17.2013 70.6116 16.956C70.3663 16.7107 70.169 16.4227 70.0196 16.092C69.881 15.7507 69.8116 15.3933 69.8116 15.02ZM71.5236 15.02C71.5236 15.372 71.6303 15.6547 71.8436 15.868C72.057 16.0813 72.3183 16.188 72.6276 16.188C72.937 16.188 73.1983 16.0813 73.4116 15.868C73.625 15.6547 73.7316 15.372 73.7316 15.02C73.7316 14.668 73.625 14.3853 73.4116 14.172C73.1983 13.9587 72.937 13.852 72.6276 13.852C72.3183 13.852 72.057 13.9587 71.8436 14.172C71.6303 14.3853 71.5236 14.668 71.5236 15.02ZM84.0924 9.404C84.7004 9.404 85.255 9.51067 85.7564 9.724C86.2684 9.92667 86.7057 10.2147 87.0684 10.588C87.4417 10.9507 87.7297 11.388 87.9324 11.9C88.1457 12.412 88.2524 12.972 88.2524 13.58C88.2524 14.188 88.1457 14.748 87.9324 15.26C87.7297 15.772 87.4417 16.2147 87.0684 16.588C86.7057 16.9507 86.2684 17.2387 85.7564 17.452C85.255 17.6547 84.7004 17.756 84.0924 17.756C83.4844 17.756 82.9244 17.6547 82.4124 17.452C81.911 17.2387 81.4737 16.9507 81.1004 16.588C80.7377 16.2147 80.4497 15.772 80.2364 15.26C80.0337 14.748 79.9324 14.188 79.9324 13.58C79.9324 12.972 80.0337 12.412 80.2364 11.9C80.4497 11.388 80.7377 10.9507 81.1004 10.588C81.4737 10.2147 81.911 9.92667 82.4124 9.724C82.9244 9.51067 83.4844 9.404 84.0924 9.404ZM84.0924 15.82C84.359 15.82 84.615 15.772 84.8604 15.676C85.1164 15.5693 85.3404 15.42 85.5324 15.228C85.7244 15.036 85.8737 14.8013 85.9804 14.524C86.0977 14.2467 86.1564 13.932 86.1564 13.58C86.1564 13.228 86.0977 12.9133 85.9804 12.636C85.8737 12.3587 85.7244 12.124 85.5324 11.932C85.3404 11.74 85.1164 11.596 84.8604 11.5C84.615 11.3933 84.359 11.34 84.0924 11.34C83.815 11.34 83.5537 11.3933 83.3084 11.5C83.063 11.596 82.8444 11.74 82.6524 11.932C82.4604 12.124 82.3057 12.3587 82.1884 12.636C82.0817 12.9133 82.0284 13.228 82.0284 13.58C82.0284 13.932 82.0817 14.2467 82.1884 14.524C82.3057 14.8013 82.4604 15.036 82.6524 15.228C82.8444 15.42 83.063 15.5693 83.3084 15.676C83.5537 15.772 83.815 15.82 84.0924 15.82ZM98.2928 5.916C98.5914 5.916 98.8688 5.94267 99.1248 5.996C99.3808 6.04933 99.6101 6.11867 99.8128 6.204L99.2208 8.076C99.1141 8.02267 98.9968 7.98 98.8688 7.948C98.7514 7.916 98.6021 7.9 98.4208 7.9C98.1114 7.9 97.8661 8.00133 97.6848 8.204C97.5034 8.40667 97.4128 8.684 97.4128 9.036V9.66H99.3648V11.452H97.4128V17.5H95.3168V11.452H92.3568V17.5H90.2608V11.452H88.8528V9.66H90.2608V8.892C90.2608 8.412 90.3301 7.99067 90.4688 7.628C90.6181 7.25467 90.8261 6.94533 91.0928 6.7C91.3594 6.444 91.6741 6.252 92.0368 6.124C92.3994 5.98533 92.7994 5.916 93.2368 5.916C93.4501 5.916 93.6208 5.92667 93.7488 5.948C93.8768 5.96933 93.9994 6.00133 94.1168 6.044L93.9888 8.012C93.9141 7.98 93.8288 7.95333 93.7328 7.932C93.6368 7.91067 93.5141 7.9 93.3648 7.9C93.0554 7.9 92.8101 8.00133 92.6288 8.204C92.4474 8.40667 92.3568 8.684 92.3568 9.036V9.66H95.3168V8.892C95.3168 8.412 95.3861 7.99067 95.5248 7.628C95.6741 7.25467 95.8821 6.94533 96.1488 6.7C96.4154 6.444 96.7301 6.252 97.0928 6.124C97.4554 5.98533 97.8554 5.916 98.2928 5.916Z" fill="url(#paint0_linear_5501_1706)"/>
<path d="M2 19.5L2.26729 21.2327L4 21.5L2.26729 21.7673L2 23.5L1.73271 21.7673L0 21.5L1.73271 21.2327L2 19.5Z" fill="#684AF6"/>
<defs>
<linearGradient id="paint0_linear_5501_1706" x1="5.15464" y1="18.5" x2="104.485" y2="11.183" gradientUnits="userSpaceOnUse">
<stop stop-color="#1E6AFD"/>
<stop offset="1" stop-color="#FF06E6"/>
</linearGradient>
</defs>
</svg>
