<svg width="16" height="16" viewBox="0 0 16 16" fill="none" xmlns="http://www.w3.org/2000/svg">
<path d="M16 8C16 12.4183 12.4183 16 8 16C3.58172 16 0 12.4183 0 8C0 3.58172 3.58172 0 8 0C12.4183 0 16 3.58172 16 8ZM2.34717 8C2.34717 11.122 4.87803 13.6528 8 13.6528C11.122 13.6528 13.6528 11.122 13.6528 8C13.6528 4.87803 11.122 2.34717 8 2.34717C4.87803 2.34717 2.34717 4.87803 2.34717 8Z" fill="#E2E8F0"/>
<mask id="path-2-inside-1_2122_14117" fill="white">
<path d="M14.8348 8C15.4783 8 16.0087 7.47559 15.9153 6.83885C15.7775 5.89941 15.473 4.98884 15.0132 4.15103C14.3659 2.97144 13.4314 1.97419 12.2964 1.25157C11.1613 0.528941 9.86231 0.104285 8.51959 0.0168915C7.56592 -0.0451801 6.61207 0.0643099 5.70256 0.336983C5.08612 0.521796 4.83542 1.22428 5.10775 1.80736C5.38008 2.39045 6.07332 2.62921 6.69971 2.48162C7.24387 2.3534 7.80609 2.30588 8.36823 2.34246C9.3198 2.4044 10.2404 2.70535 11.0448 3.21746C11.8492 3.72958 12.5114 4.43632 12.9702 5.27228C13.2412 5.76612 13.4361 6.29564 13.5502 6.84293C13.6815 7.47293 14.1912 8 14.8348 8Z"/>
</mask>
<path d="M14.8348 8C15.4783 8 16.0087 7.47559 15.9153 6.83885C15.7775 5.89941 15.473 4.98884 15.0132 4.15103C14.3659 2.97144 13.4314 1.97419 12.2964 1.25157C11.1613 0.528941 9.86231 0.104285 8.51959 0.0168915C7.56592 -0.0451801 6.61207 0.0643099 5.70256 0.336983C5.08612 0.521796 4.83542 1.22428 5.10775 1.80736C5.38008 2.39045 6.07332 2.62921 6.69971 2.48162C7.24387 2.3534 7.80609 2.30588 8.36823 2.34246C9.3198 2.4044 10.2404 2.70535 11.0448 3.21746C11.8492 3.72958 12.5114 4.43632 12.9702 5.27228C13.2412 5.76612 13.4361 6.29564 13.5502 6.84293C13.6815 7.47293 14.1912 8 14.8348 8Z" fill="#16A34A" stroke="#16A34A" stroke-width="2" mask="url(#path-2-inside-1_2122_14117)"/>
</svg>
